<?xml version="1.0" encoding="utf-8"?>
<!-- Generated by Mocodo 4.2.11 -->
<svg width="823" height="432" viewBox="0 0 823 432" xmlns="http://www.w3.org/2000/svg">
<rect x="0" y="0" width="823" height="432" fill="#ffffbf" stroke="none" stroke-width="0"/>

<!-- Association ADD_TO -->
<g>
	<line x1="147" y1="254" x2="147" y2="43" stroke="#f46d43" stroke-width="2"/>
	<line x1="312" y1="43" x2="147" y2="43" stroke="#f46d43" stroke-width="2"/>
	<g>
		<path d="M166 18 a14 14 90 0 1 14 14 V43 h-66 V32 a14 14 90 0 1 14 -14" fill="#fdae61" stroke="#fdae61" stroke-width="0"/>
		<path d="M180 43 v11 a14 14 90 0 1 -14 14 H128 a14 14 90 0 1 -14 -14 V43 H66" fill="#fee08b" stroke="#fee08b" stroke-width="0"/>
		<rect x="114" y="18" width="66" height="50" fill="none" rx="14" stroke="#f46d43" stroke-width="2"/>
		<line x1="114" y1="43" x2="180" y2="43" stroke="#f46d43" stroke-width="1"/>
		<text x="121" y="35.75" fill="#000000" font-family="Verdana" font-size="12">ADD_TO</text>
	</g>
	<text x="120" y="178" fill="#1a9850" font-family="Verdana" font-size="12">0,N</text>
	<text x="248" y="60" fill="#1a9850" font-family="Verdana" font-size="12">1,1</text>
</g>

<!-- Association IS_BOOKMARKED -->
<g>
	<line x1="514" y1="254" x2="514" y2="43" stroke="#f46d43" stroke-width="2"/>
	<line x1="312" y1="43" x2="514" y2="43" stroke="#f46d43" stroke-width="2"/>
	<g>
		<path d="M562 18 a14 14 90 0 1 14 14 V43 h-124 V32 a14 14 90 0 1 14 -14" fill="#fdae61" stroke="#fdae61" stroke-width="0"/>
		<path d="M576 43 v11 a14 14 90 0 1 -14 14 H466 a14 14 90 0 1 -14 -14 V43 H124" fill="#fee08b" stroke="#fee08b" stroke-width="0"/>
		<rect x="452" y="18" width="124" height="50" fill="none" rx="14" stroke="#f46d43" stroke-width="2"/>
		<line x1="452" y1="43" x2="576" y2="43" stroke="#f46d43" stroke-width="1"/>
		<text x="460" y="35.75" fill="#000000" font-family="Verdana" font-size="12">IS_BOOKMARKED</text>
	</g>
	<text x="519" y="178" fill="#1a9850" font-family="Verdana" font-size="12">0,N</text>
	<text x="355" y="60" fill="#1a9850" font-family="Verdana" font-size="12">1,1</text>
</g>

<!-- Association GIVE -->
<g>
	<line x1="147" y1="254" x2="219" y2="136" stroke="#f46d43" stroke-width="2"/>
	<line x1="312" y1="136" x2="219" y2="136" stroke="#f46d43" stroke-width="2"/>
	<g>
		<path d="M228 111 a14 14 90 0 1 14 14 V136 h-46 V125 a14 14 90 0 1 14 -14" fill="#fdae61" stroke="#fdae61" stroke-width="0"/>
		<path d="M242 136 v11 a14 14 90 0 1 -14 14 H210 a14 14 90 0 1 -14 -14 V136 H46" fill="#fee08b" stroke="#fee08b" stroke-width="0"/>
		<rect x="196" y="111" width="46" height="50" fill="none" rx="14" stroke="#f46d43" stroke-width="2"/>
		<line x1="196" y1="136" x2="242" y2="136" stroke="#f46d43" stroke-width="1"/>
		<text x="204" y="128.75" fill="#000000" font-family="Verdana" font-size="12">GIVE</text>
	</g>
	<text x="192" y="200.73" fill="#1a9850" font-family="Verdana" font-size="12">0,N</text>
	<text x="248" y="153" fill="#1a9850" font-family="Verdana" font-size="12">1,1</text>
</g>

<!-- Association HAS_LIKE -->
<g>
	<line x1="514" y1="254" x2="420" y2="136" stroke="#f46d43" stroke-width="2"/>
	<line x1="312" y1="136" x2="420" y2="136" stroke="#f46d43" stroke-width="2"/>
	<g>
		<path d="M444 111 a14 14 90 0 1 14 14 V136 h-76 V125 a14 14 90 0 1 14 -14" fill="#fdae61" stroke="#fdae61" stroke-width="0"/>
		<path d="M458 136 v11 a14 14 90 0 1 -14 14 H396 a14 14 90 0 1 -14 -14 V136 H76" fill="#fee08b" stroke="#fee08b" stroke-width="0"/>
		<rect x="382" y="111" width="76" height="50" fill="none" rx="14" stroke="#f46d43" stroke-width="2"/>
		<line x1="382" y1="136" x2="458" y2="136" stroke="#f46d43" stroke-width="1"/>
		<text x="389" y="128.75" fill="#000000" font-family="Verdana" font-size="12">HAS_LIKE</text>
	</g>
	<text x="447" y="214.84" fill="#1a9850" font-family="Verdana" font-size="12">0,N</text>
	<text x="355" y="153" fill="#1a9850" font-family="Verdana" font-size="12">1,1</text>
</g>

<!-- Association FOLLOW -->
<g>
	<path d="M147 254 C107.33 287.33 72.33 287.33 42 254" fill="none" stroke="#f46d43" stroke-width="2"/>
	<path d="M147 254 C107.33 220.67 72.33 220.67 42 254" fill="none" stroke="#f46d43" stroke-width="2"/>
	<g>
		<path d="M61 229 a14 14 90 0 1 14 14 V254 h-66 V243 a14 14 90 0 1 14 -14" fill="#fdae61" stroke="#fdae61" stroke-width="0"/>
		<path d="M75 254 v11 a14 14 90 0 1 -14 14 H23 a14 14 90 0 1 -14 -14 V254 H66" fill="#fee08b" stroke="#fee08b" stroke-width="0"/>
		<rect x="9" y="229" width="66" height="50" fill="none" rx="14" stroke="#f46d43" stroke-width="2"/>
		<line x1="9" y1="254" x2="75" y2="254" stroke="#f46d43" stroke-width="1"/>
		<text x="16" y="246.75" fill="#000000" font-family="Verdana" font-size="12">FOLLOW</text>
	</g>
	<text x="80" y="269" fill="#1a9850" font-family="Verdana" font-size="12">0,N</text>
	<text x="80" y="248" fill="#1a9850" font-family="Verdana" font-size="12">0,N</text>
</g>

<!-- Association CREATE -->
<g>
	<line x1="147" y1="254" x2="312" y2="254" stroke="#f46d43" stroke-width="2"/>
	<line x1="514" y1="254" x2="312" y2="254" stroke="#f46d43" stroke-width="2"/>
	<g>
		<path d="M330 229 a14 14 90 0 1 14 14 V254 h-64 V243 a14 14 90 0 1 14 -14" fill="#fdae61" stroke="#fdae61" stroke-width="0"/>
		<path d="M344 254 v11 a14 14 90 0 1 -14 14 H294 a14 14 90 0 1 -14 -14 V254 H64" fill="#fee08b" stroke="#fee08b" stroke-width="0"/>
		<rect x="280" y="229" width="64" height="50" fill="none" rx="14" stroke="#f46d43" stroke-width="2"/>
		<line x1="280" y1="254" x2="344" y2="254" stroke="#f46d43" stroke-width="1"/>
		<text x="288" y="246.75" fill="#000000" font-family="Verdana" font-size="12">CREATE</text>
	</g>
	<text x="192" y="271" fill="#1a9850" font-family="Verdana" font-size="12">0,N</text>
	<text x="448" y="271" fill="#1a9850" font-family="Verdana" font-size="12">1,1</text>
</g>

<!-- Association HAVE -->
<g>
	<line x1="514" y1="254" x2="610" y2="254" stroke="#f46d43" stroke-width="2"/>
	<line x1="740" y1="254" x2="610" y2="254" stroke="#f46d43" stroke-width="2"/>
	<g>
		<path d="M620 229 a14 14 90 0 1 14 14 V254 h-48 V243 a14 14 90 0 1 14 -14" fill="#fdae61" stroke="#fdae61" stroke-width="0"/>
		<path d="M634 254 v11 a14 14 90 0 1 -14 14 H600 a14 14 90 0 1 -14 -14 V254 H48" fill="#fee08b" stroke="#fee08b" stroke-width="0"/>
		<rect x="586" y="229" width="48" height="50" fill="none" rx="14" stroke="#f46d43" stroke-width="2"/>
		<line x1="586" y1="254" x2="634" y2="254" stroke="#f46d43" stroke-width="1"/>
		<text x="593" y="246.75" fill="#000000" font-family="Verdana" font-size="12">HAVE</text>
	</g>
	<text x="559" y="271" fill="#1a9850" font-family="Verdana" font-size="12">1,1</text>
	<text x="640" y="271" fill="#1a9850" font-family="Verdana" font-size="12">1,1</text>
</g>

<!-- Association WRITE -->
<g>
	<line x1="147" y1="254" x2="147" y2="372" stroke="#f46d43" stroke-width="2"/>
	<line x1="312" y1="372" x2="147" y2="372" stroke="#f46d43" stroke-width="2"/>
	<g>
		<path d="M161 347 a14 14 90 0 1 14 14 V372 h-56 V361 a14 14 90 0 1 14 -14" fill="#fdae61" stroke="#fdae61" stroke-width="0"/>
		<path d="M175 372 v11 a14 14 90 0 1 -14 14 H133 a14 14 90 0 1 -14 -14 V372 H56" fill="#fee08b" stroke="#fee08b" stroke-width="0"/>
		<rect x="119" y="347" width="56" height="50" fill="none" rx="14" stroke="#f46d43" stroke-width="2"/>
		<line x1="119" y1="372" x2="175" y2="372" stroke="#f46d43" stroke-width="1"/>
		<text x="127" y="364.75" fill="#000000" font-family="Verdana" font-size="12">WRITE</text>
	</g>
	<text x="152" y="339" fill="#1a9850" font-family="Verdana" font-size="12">0,N</text>
	<text x="246" y="389" fill="#1a9850" font-family="Verdana" font-size="12">1,1</text>
</g>

<!-- Association HAS_COMMENT -->
<g>
	<line x1="514" y1="254" x2="514" y2="372" stroke="#f46d43" stroke-width="2"/>
	<line x1="312" y1="372" x2="514" y2="372" stroke="#f46d43" stroke-width="2"/>
	<g>
		<path d="M555 347 a14 14 90 0 1 14 14 V372 h-110 V361 a14 14 90 0 1 14 -14" fill="#fdae61" stroke="#fdae61" stroke-width="0"/>
		<path d="M569 372 v11 a14 14 90 0 1 -14 14 H473 a14 14 90 0 1 -14 -14 V372 H110" fill="#fee08b" stroke="#fee08b" stroke-width="0"/>
		<rect x="459" y="347" width="110" height="50" fill="none" rx="14" stroke="#f46d43" stroke-width="2"/>
		<line x1="459" y1="372" x2="569" y2="372" stroke="#f46d43" stroke-width="1"/>
		<text x="466" y="364.75" fill="#000000" font-family="Verdana" font-size="12">HAS_COMMENT</text>
	</g>
	<text x="519" y="339" fill="#1a9850" font-family="Verdana" font-size="12">0,N</text>
	<text x="357" y="389" fill="#1a9850" font-family="Verdana" font-size="12">1,1</text>
</g>

<!-- Entity FAVORITES -->
<g>
	<g>
		<rect x="274" y="9" width="76" height="25" fill="#a6d96a" stroke="none" stroke-width="0" opacity="1"/>
		<rect x="274" y="34" width="76" height="43" fill="#d9ef8b" stroke="none" stroke-width="0" opacity="1"/>
		<rect x="274" y="9" width="76" height="68" fill="none" stroke="#66bd63" stroke-width="2" opacity="1"/>
		<line x1="274" y1="34" x2="350" y2="34" stroke="#66bd63" stroke-width="1"/>
	</g>
	<text x="284" y="26.75" fill="#000000" font-family="Verdana" font-size="12">Favorites</text>
	<text x="279" y="51.8" fill="#000000" font-family="Verdana" font-size="12">id</text>
	<line x1="279" y1="54" x2="291" y2="54" stroke="#000000" stroke-width="1"/>
	<text x="279" y="68.8" fill="#000000" font-family="Verdana" font-size="12">created_at</text>
</g>

<!-- Entity LIKE -->
<g>
	<g>
		<rect x="274" y="102" width="76" height="25" fill="#a6d96a" stroke="none" stroke-width="0" opacity="1"/>
		<rect x="274" y="127" width="76" height="43" fill="#d9ef8b" stroke="none" stroke-width="0" opacity="1"/>
		<rect x="274" y="102" width="76" height="68" fill="none" stroke="#66bd63" stroke-width="2" opacity="1"/>
		<line x1="274" y1="127" x2="350" y2="127" stroke="#66bd63" stroke-width="1"/>
	</g>
	<text x="300" y="119.75" fill="#000000" font-family="Verdana" font-size="12">Like</text>
	<text x="279" y="144.8" fill="#000000" font-family="Verdana" font-size="12">id</text>
	<line x1="279" y1="147" x2="291" y2="147" stroke="#000000" stroke-width="1"/>
	<text x="279" y="161.8" fill="#000000" font-family="Verdana" font-size="12">created_at</text>
</g>

<!-- Entity USER -->
<g>
	<g>
		<rect x="107" y="186" width="80" height="25" fill="#a6d96a" stroke="none" stroke-width="0" opacity="1"/>
		<rect x="107" y="211" width="80" height="111" fill="#d9ef8b" stroke="none" stroke-width="0" opacity="1"/>
		<rect x="107" y="186" width="80" height="136" fill="none" stroke="#66bd63" stroke-width="2" opacity="1"/>
		<line x1="107" y1="211" x2="187" y2="211" stroke="#66bd63" stroke-width="1"/>
	</g>
	<text x="133" y="203.75" fill="#000000" font-family="Verdana" font-size="12">User</text>
	<text x="112" y="228.8" fill="#000000" font-family="Verdana" font-size="12">id</text>
	<line x1="112" y1="231" x2="124" y2="231" stroke="#000000" stroke-width="1"/>
	<text x="112" y="245.8" fill="#000000" font-family="Verdana" font-size="12">name</text>
	<text x="112" y="262.8" fill="#000000" font-family="Verdana" font-size="12">email</text>
	<text x="112" y="279.8" fill="#000000" font-family="Verdana" font-size="12">avatar_url</text>
	<text x="112" y="296.8" fill="#000000" font-family="Verdana" font-size="12">created_at</text>
	<text x="112" y="313.8" fill="#000000" font-family="Verdana" font-size="12">updated_at</text>
</g>

<!-- Entity ARTWORK -->
<g>
	<g>
		<rect x="474" y="186" width="80" height="25" fill="#a6d96a" stroke="none" stroke-width="0" opacity="1"/>
		<rect x="474" y="211" width="80" height="111" fill="#d9ef8b" stroke="none" stroke-width="0" opacity="1"/>
		<rect x="474" y="186" width="80" height="136" fill="none" stroke="#66bd63" stroke-width="2" opacity="1"/>
		<line x1="474" y1="211" x2="554" y2="211" stroke="#66bd63" stroke-width="1"/>
	</g>
	<text x="490" y="203.75" fill="#000000" font-family="Verdana" font-size="12">Artwork</text>
	<text x="479" y="228.8" fill="#000000" font-family="Verdana" font-size="12">id</text>
	<line x1="479" y1="231" x2="491" y2="231" stroke="#000000" stroke-width="1"/>
	<text x="479" y="245.8" fill="#000000" font-family="Verdana" font-size="12">token</text>
	<text x="479" y="262.8" fill="#000000" font-family="Verdana" font-size="12">title</text>
	<text x="479" y="279.8" fill="#000000" font-family="Verdana" font-size="12">description</text>
	<text x="479" y="296.8" fill="#000000" font-family="Verdana" font-size="12">created_at</text>
	<text x="479" y="313.8" fill="#000000" font-family="Verdana" font-size="12">updated_at</text>
</g>

<!-- Entity ARTWORKCHARACTERISTICS -->
<g>
	<g>
		<rect x="666" y="169" width="148" height="25" fill="#a6d96a" stroke="none" stroke-width="0" opacity="1"/>
		<rect x="666" y="194" width="148" height="145" fill="#d9ef8b" stroke="none" stroke-width="0" opacity="1"/>
		<rect x="666" y="169" width="148" height="170" fill="none" stroke="#66bd63" stroke-width="2" opacity="1"/>
		<line x1="666" y1="194" x2="814" y2="194" stroke="#66bd63" stroke-width="1"/>
	</g>
	<text x="672" y="186.75" fill="#000000" font-family="Verdana" font-size="12">ArtworkCharacteristics</text>
	<text x="671" y="211.8" fill="#000000" font-family="Verdana" font-size="12">id</text>
	<line x1="671" y1="214" x2="683" y2="214" stroke="#000000" stroke-width="1"/>
	<text x="671" y="228.8" fill="#000000" font-family="Verdana" font-size="12">gridSize_width</text>
	<text x="671" y="245.8" fill="#000000" font-family="Verdana" font-size="12">gridSize_height</text>
	<text x="671" y="262.8" fill="#000000" font-family="Verdana" font-size="12">gridSize_pixelSize</text>
	<text x="671" y="279.8" fill="#000000" font-family="Verdana" font-size="12">gridColor_background</text>
	<text x="671" y="296.8" fill="#000000" font-family="Verdana" font-size="12">gridColor_line</text>
	<text x="671" y="313.8" fill="#000000" font-family="Verdana" font-size="12">gridPrinting</text>
	<text x="671" y="330.8" fill="#000000" font-family="Verdana" font-size="12">pixelColors</text>
</g>

<!-- Entity COMMENT -->
<g>
	<g>
		<rect x="272" y="321" width="80" height="25" fill="#a6d96a" stroke="none" stroke-width="0" opacity="1"/>
		<rect x="272" y="346" width="80" height="77" fill="#d9ef8b" stroke="none" stroke-width="0" opacity="1"/>
		<rect x="272" y="321" width="80" height="102" fill="none" stroke="#66bd63" stroke-width="2" opacity="1"/>
		<line x1="272" y1="346" x2="352" y2="346" stroke="#66bd63" stroke-width="1"/>
	</g>
	<text x="283" y="338.75" fill="#000000" font-family="Verdana" font-size="12">Comment</text>
	<text x="277" y="363.8" fill="#000000" font-family="Verdana" font-size="12">id</text>
	<line x1="277" y1="366" x2="289" y2="366" stroke="#000000" stroke-width="1"/>
	<text x="277" y="380.8" fill="#000000" font-family="Verdana" font-size="12">content</text>
	<text x="277" y="397.8" fill="#000000" font-family="Verdana" font-size="12">created_at</text>
	<text x="277" y="414.8" fill="#000000" font-family="Verdana" font-size="12">updated_at</text>
</g>
</svg>